<svg version="1.2" xmlns="http://www.w3.org/2000/svg" viewBox="0 0 873 528" width="873" height="528">
	<title>7467381-ai</title>
	<style>
		.s0 { opacity: .6;mix-blend-mode: multiply;fill: #fce1c5 } 
		.s1 { fill: #b57e5f } 
		.s2 { opacity: .2;mix-blend-mode: multiply;fill: #b57e5f } 
		.s3 { fill: #8b432f } 
		.s4 { fill: #d39779 } 
		.s5 { opacity: .3;mix-blend-mode: multiply;fill: #d39779 } 
		.s6 { fill: #f0c591 } 
		.s7 { fill: #76849b } 
		.s8 { opacity: .4;mix-blend-mode: multiply;fill: #76849b } 
		.s9 { fill: #596d89 } 
		.s10 { fill: #ffc7b8 } 
		.s11 { fill: #39345b } 
	</style>
	<g id="OBJECTS">
		<g id="&lt;Group&gt;">
			<path id="&lt;Path&gt;" class="s0" d="m549.6 497.5c0 15.6-118.3 14.3-264.1 14.3-145.9 0-264.1 1.3-264.1-14.3 0-15.6 118.2-42.3 264.1-42.3 145.8 0 264.1 26.7 264.1 42.3z"/>
			<g id="&lt;Group&gt;">
				<g id="&lt;Group&gt;">
					<g id="&lt;Group&gt;">
						<path id="&lt;Compound Path&gt;" class="s1" d="m557.1 260.9l-45.8 230.5h-162.7v-230.5z"/>
						<path id="&lt;Path&gt;" class="s2" d="m425.8 479.9c8.5 3 85.5 11.5 85.5 11.5h-132.3c-6.7-36.6-22.9-144.9 10.7-202.9 6.3-10.9 14.8-20.1 24.7-27.6h142.7l-27.5 138.5c-29.7-16.3-6-69.1-6-69.1-44 1.3-48.1-31.6-48.1-31.6-5.8 24.4-33.5 68-35.6 72.9-2.2 4.9-22.7 105.3-14.1 108.3z"/>
						<g id="&lt;Group&gt;">
							<path id="&lt;Path&gt;" class="s3" d="m501.7 475.7c-11.4 1.1-23 0.4-34.5 0.4-11.5-0.1-23.1 0.1-34.7-0.9-0.3 0-0.7-0.8-0.3-0.9 10.7-1 21.5-0.8 32.2-0.8 12.1-0.1 24.4-0.8 36.4 0.3 0.7 0.1 2.2 1.8 0.9 1.9z"/>
							<path id="&lt;Path&gt;" class="s3" d="m501.8 466.7c-10.5 1-32.9 0.2-43.3-0.3-0.7 0-1.5-1.3-0.6-1.4 10.3-0.5 32.5-1.1 42.8-0.3 0.8 0.1 2.5 1.9 1.1 2z"/>
						</g>
					</g>
					<g id="&lt;Group&gt;">
						<path id="&lt;Path&gt;" class="s4" d="m441.8 260.9l-33.8 230.5h-344.1l-37.3-230.5z"/>
						<path id="&lt;Path&gt;" class="s5" d="m401.4 396.7c0 0-49-0.1-4.7-77.9 0 0-73.6 2.6-47.6-57.9h92.7l-33.8 230.5h-344.1c0 0 291.3-10.8 305.6-18.2 14.4-7.5 31.9-76.5 31.9-76.5z"/>
						<path id="&lt;Path&gt;" class="s6" d="m178.8 463.5h-93.5l-6-31.4h103.5z"/>
						<g id="&lt;Group&gt;">
							<path id="&lt;Path&gt;" class="s1" d="m173 410.6c-15.6 0.8-31.3 0.9-47 1-15.6 0-32.2 1.7-47.6-0.5-0.7-0.1-2.1-1.7-0.9-1.8 14.7-2.1 30.6-0.6 45.4-0.5 16.7 0.1 33.3 0.1 49.9 1 0.3 0 0.6 0.8 0.2 0.8z"/>
							<path id="&lt;Path&gt;" class="s1" d="m131 398.7c-18.4 0.9-37.4 1.9-55.7 0.4-0.6 0-1.5-1.4-0.5-1.5 18.3-1.7 37.5-0.5 55.9 0.4 0.3 0 0.6 0.7 0.3 0.7z"/>
						</g>
					</g>
				</g>
				<g id="&lt;Group&gt;">
					<path id="&lt;Path&gt;" class="s7" d="m791.7 150.3c-11.2-49.4-70.9-72.7-117.5-37.3-46.6 35.4-87.4 79.2-134.6 57.8 0 0 21.2 30.7 22 90.1 1.4 7.9 23.5-2.4 39.4 6.5 15.8 8.8-12.2 71.3-28.2 101.3-16.1 30.1-37.6 36.1-43.6 17-6.1-19.1 17.2-64.8 17.2-64.8 0 0-37.3 5.6-52.2-15.3-9.4-13.3-4-32.5 1.1-44.7h-379.5c9.8-49.5 37.2-115.6 112-153.5 130.5-66.2 247.4 7.5 276.1 25.2 28.6 17.7 61.3 10.2 86.4-19.6 25.2-29.8 84.1-93.2 153.5-83.9 69.3 9.3 91.7 55 96.3 110 4.7 55-37.3 60.6-48.4 11.2z"/>
					<path id="&lt;Path&gt;" class="s8" d="m117 255.1h380.8l-2.5 5.8h-379.5q0.5-2.9 1.2-5.8z"/>
					<g id="&lt;Group&gt;">
						<path id="&lt;Path&gt;" class="s9" d="m793.5 80.4c-11.6 10.7-27 6.5-22.4-14.9 2.6-11.6 7.8-19.9 12.1-25.1 13 6.2 23.2 14.5 31.2 24.4-6 3.8-14.3 9.5-20.9 15.6z"/>
						<path id="&lt;Path&gt;" class="s9" d="m730.1 56.1c-6.6 27.8-17.7 21.9-23.3 6.7-3.3-9.1-2.7-22.4-1.6-31.8 10.3-2.3 20.9-3.3 31.9-2.6-1.9 7.2-4.3 16.5-7 27.7z"/>
						<path id="&lt;Path&gt;" class="s9" d="m840.3 152.1c-0.9 14.6-5.6 24.2-11.9 28.8-7.8-4.7-15.3-10.8-14.4-16.2 1.5-8.6 13.3-15.3 26.3-12.6z"/>
						<path id="&lt;Path&gt;" class="s9" d="m812.6 107.8c5.2-5.2 12.9-8.3 19.5-10.1 3.6 10.8 5.9 22.4 7.3 34.5-28.8-2.5-36.2-15-26.8-24.4z"/>
						<path id="&lt;Path&gt;" class="s9" d="m590.3 113c4.6-5.4 10.2-11.8 16.7-18.7 3.7 15.9 7.7 38.3 2.4 42.5-5.3 4.1-16.2-9-23.3-19q2.1-2.3 4.2-4.8z"/>
						<path id="&lt;Path&gt;" class="s9" d="m638.8 65.1c8.7-7 18.3-13.5 28.4-19.2 2.6 15.4 5.3 40.8-2.3 49.4-8.1 9.1-20.1-15.8-26.1-30.2z"/>
						<path id="&lt;Path&gt;" class="s9" d="m424.9 132.7c6.2-12.5 16.1-22.6 23.9-29.1 14.2 5.9 26.3 12.2 36 17.6-13.7 5.4-29.5 16.8-37.5 27.5-10.8 14.2-33.6 6.7-22.4-16z"/>
						<path id="&lt;Path&gt;" class="s9" d="m145.6 182.7c7.1-11.6 15.7-23 25.9-33.8 0.4 22 3.5 45.6 10.1 61.5 12.6 30.3-1.4 33.5-19.5 10.7-8.5-10.7-13.6-25.6-16.5-38.4z"/>
						<path id="&lt;Path&gt;" class="s9" d="m254.2 95.8c-22.3 48.6-12.7 93-16.6 109.5-4.2 17.7-23.3 0.4-29.4-35-3.3-19.5-1.9-38.5 0.1-51.7 6.1-4 12.6-7.7 19.5-11.2 8.8-4.5 17.6-8.3 26.4-11.6z"/>
						<path id="&lt;Path&gt;" class="s9" d="m352.9 80.7c-52.4 45.5-52.7 114.9-59.9 120.4-7.9 6-23.8-9.8-19.6-52.4 2.5-25.5 14-49.4 22.9-64.5 19.7-3.6 38.6-4.5 56.6-3.5z"/>
						<path id="&lt;Path&gt;" class="s9" d="m348 139.6c8.3-25 22.7-44.9 32.1-56 14.2 2.3 27.6 5.6 40 9.5-35 33.4-50 77.6-59.5 93.1-10.3 16.7-25.6-7.5-12.6-46.6z"/>
					</g>
					<g id="&lt;Group&gt;">
						<path id="&lt;Path&gt;" class="s9" d="m503.9 314.4c-3.7-2.3-7-5.1-9.7-8.8-1.8-2.7-3.1-5.6-4-8.6 9-12.9 24-31.7 33.5-28.4 10.4 3.6-8.5 31-19.8 45.8z"/>
						<path id="&lt;Path&gt;" class="s9" d="m530.8 321.5c-5.6-0.3-12-1.1-18.1-3.2 5.2-9.2 15.2-24.4 25.8-25.9 10.3-1.4 0.1 16.9-7.7 29.1z"/>
					</g>
					<g id="&lt;Group&gt;" style="opacity: .4;mix-blend-mode: multiply">
						<path id="&lt;Path&gt;" class="s7" d="m674.2 113c-46.6 35.4-87.4 79.2-134.6 57.8 0 0 46.5 10.1 76.8-23.3 25.7-28.3 77.8-86.5 136.7-66.9 51.5 17.1 47.6 50.5 55.7 70.9 4.4 11.2 14.3 20.7 24.4 24.5-11.7 16.2-33.9 8.2-41.5-25.7-11.2-49.4-70.9-72.7-117.5-37.3z"/>
						<path id="&lt;Path&gt;" class="s7" d="m539.6 170.8c0 0 21.2 30.7 22 90.1 1.4 7.9 23.5-2.4 39.4 6.5 15.8 8.8-12.2 71.3-28.2 101.3-16.1 30.1-37.6 36.1-43.6 17-6.1-19.1 17.2-64.8 17.2-64.8 0 0-37.3 5.6-52.2-15.3-9.4-13.3-4-32.5 1.1-44.7 0 0 1.7-5.4 3.9-8.2 0 0-10.4 44.6 13.5 51.8 23.9 7.3 42.5 3.8 42.5 3.8 0 0-24.4 71.4-12.3 75.5 12 4.1 45.1-57.9 52.1-82.6 7-24.6 1.8-33-16.3-30.2-18.2 2.8-25.9 5.8-25.6-21.8 0.4-27.6-5.9-64-13.5-78.4z"/>
					</g>
					<g id="&lt;Group&gt;">
						<path id="&lt;Path&gt;" class="s10" d="m545.9 375c-8.6-3-10.1-18.3-2.3-21.2 7.7-2.8 10.8 9.6 10.8 9.6 0 0 10.6-6.1 13 0 2.5 6.1-11.6 15.2-21.5 11.6z"/>
						<path id="&lt;Path&gt;" class="s10" d="m540 386c-4.1-0.7-0.3-11 2.7-9.1 2.9 1.9 1.5 9.7-2.7 9.1z"/>
						<path id="&lt;Path&gt;" class="s10" d="m549.3 379.8c-2.7 1.1-2.6 9.4 0.5 8 3-1.5 2.5-9.2-0.5-8z"/>
						<path id="&lt;Path&gt;" class="s10" d="m534.3 376.4c-2.9-1.9 2.5-6.5 3.9-4.2 1.4 2.4-1.8 5.5-3.9 4.2z"/>
						<path id="&lt;Path&gt;" class="s10" d="m555.9 378.8c-1.6 1.1-0.1 5.1 1.5 4 1.6-1.2 0.7-5.6-1.5-4z"/>
					</g>
					<path id="&lt;Path&gt;" class="s7" d="m439.8 199.7c6.5 19.1-14.4 40.5-13 48.4 1.4 8 23.7-2.8 39.6 6.1 15.8 8.9-12.1 71.3-28.2 101.4-16.1 30-37.5 36.1-43.6 17-6.1-19.1 17.2-64.8 17.2-64.8 0 0-37.3 5.6-52.1-15.4-14.9-21 6.9-56.4 6.9-56.4"/>
					<g id="&lt;Group&gt;">
						<path id="&lt;Path&gt;" class="s9" d="m369.3 301.2c-3.7-2.2-7-5.1-9.6-8.8-1.9-2.6-3.2-5.5-4-8.5 8.9-12.9 23.9-31.7 33.4-28.4 10.4 3.6-8.5 30.9-19.8 45.7z"/>
						<path id="&lt;Path&gt;" class="s9" d="m396.2 308.3c-5.5-0.2-11.9-1.1-18.1-3.1 5.2-9.2 15.2-24.5 25.8-26 10.3-1.4 0.1 17-7.7 29.1z"/>
					</g>
					<g id="&lt;Group&gt;">
						<path id="&lt;Path&gt;" class="s10" d="m411.3 361.9c-8.6-3.1-10-18.4-2.3-21.2 7.8-2.9 10.8 9.5 10.8 9.5 0 0 10.6-6.1 13.1 0 2.4 6.2-11.7 15.2-21.6 11.7z"/>
						<path id="&lt;Path&gt;" class="s10" d="m405.4 372.8c-4.1-0.6-0.3-11 2.7-9 3 1.9 1.5 9.7-2.7 9z"/>
						<path id="&lt;Path&gt;" class="s10" d="m414.7 366.6c-2.7 1.1-2.6 9.5 0.5 8 3.1-1.5 2.5-9.1-0.5-8z"/>
						<path id="&lt;Path&gt;" class="s10" d="m399.8 363.2c-3-1.8 2.4-6.5 3.8-4.1 1.4 2.3-1.8 5.4-3.8 4.1z"/>
						<path id="&lt;Path&gt;" class="s10" d="m421.3 365.7c-1.6 1.1-0.1 5.1 1.5 3.9 1.6-1.2 0.7-5.6-1.5-3.9z"/>
					</g>
					<path id="&lt;Path&gt;" class="s8" d="m450.3 319.4c19.8-40.2 16.1-65.2 16.1-65.2 15.8 8.9-12.1 71.3-28.2 101.4-16.1 30-37.5 36.1-43.6 17-6.1-19.1 17.2-64.8 17.2-64.8 0 0-37.3 5.6-52.1-15.4-10.5-14.8-2.7-36.8 2.8-48.4-16.3 64.3 61.1 52.6 61.1 52.6 0 0-35.8 58.8-16.2 72.3 9.8 6.7 26.3-15.8 42.9-49.5z"/>
					<g id="&lt;Group&gt;">
						<g id="&lt;Group&gt;">
							<path id="&lt;Path&gt;" class="s11" d="m501.2 249.2c-2.4 4.2-4.3 8.7-6.1 13.2-1.8 4.5-3.2 9.1-4.1 13.9-0.9 4.7-1.4 9.5-1 14.2 0.5 4.8 1.8 9.4 4.4 13.3 2.5 3.9 6.1 7.2 10.2 9.5 4 2.4 8.5 4 13.2 5 9.2 2 19 2.2 28.4 1 0.9-0.2 1.8 0.5 1.9 1.4q0.1 0.6-0.2 1c-5 10.4-9.5 21.2-13.1 32.2-1.7 5.5-3.2 11-4.1 16.7-0.8 5.6-1.1 11.3 1 16.2 1 2.5 2.4 4.7 4.4 6.1 2 1.4 4.4 2 7 1.7 2.5-0.2 5-1.3 7.4-2.6 2.3-1.4 4.5-3.1 6.6-5 4.1-3.9 7.6-8.5 10.6-13.3 3.1-4.8 5.7-10 8.3-15.2 5.3-10.4 10.2-21 14.7-31.7 4.6-10.7 8.7-21.5 11.6-32.8 1.4-5.6 2.5-11.3 2.3-16.9-0.2-2.8-0.8-5.7-2.4-7.7q-0.7-0.7-1.5-1.2c-0.6-0.4-1.2-0.7-1.8-1q-2-0.9-4-1.6c-5.5-1.6-11.4-1.7-17.2-1.5-2.9 0.1-5.8 0.3-8.8 0.3-1.4-0.1-2.9-0.1-4.3-0.5-0.7-0.3-1.4-0.6-2-1.1-0.6-0.5-0.9-1.2-1-1.9 0.2 1.5 1.6 2.5 3 2.7 1.4 0.4 2.9 0.4 4.3 0.3 2.9-0.1 5.8-0.4 8.8-0.6 5.8-0.4 11.8-0.6 17.6 1q2.1 0.5 4.2 1.4c0.7 0.3 1.4 0.7 2.1 1 0.7 0.4 1.3 1 1.9 1.6 2.2 2.4 2.9 5.6 3.1 8.6 0.4 6.1-0.7 12-1.9 17.7-2.7 11.5-6.7 22.6-11 33.5-4.3 10.9-9.3 21.5-14.5 32-2.6 5.2-5.2 10.5-8.3 15.6-3.2 5-6.8 9.9-11.2 14-2.2 2.1-4.6 4.1-7.3 5.6-2.6 1.6-5.6 2.9-8.9 3.2-1.7 0.2-3.4 0.2-5-0.2-1.7-0.4-3.3-1.2-4.7-2.2-2.8-2-4.6-4.9-5.8-7.8-1.2-2.9-1.7-6.2-1.7-9.2-0.1-3.1 0.2-6.1 0.7-9.1 0.9-5.9 2.5-11.6 4.3-17.3 3.7-11.2 8.4-22 13.6-32.5l1.8 2.4c-5 0.7-9.9 0.7-14.9 0.5-4.9-0.2-9.9-0.9-14.7-2.1-4.8-1.2-9.5-2.9-13.8-5.6-4.3-2.6-8.1-6.1-10.7-10.4-2.8-4.3-4-9.4-4.3-14.3-0.3-5 0.4-9.9 1.5-14.7 2.3-9.5 6.3-18.6 11.4-26.8z"/>
						</g>
						<g id="&lt;Group&gt;">
							<path id="&lt;Path&gt;" class="s11" d="m366.6 236c-2.3 4.3-4.4 8.7-6.1 13.2-1.8 4.5-3.2 9.2-4.2 13.9-0.9 4.7-1.4 9.5-0.9 14.3 0.4 4.7 1.7 9.4 4.3 13.3 2.6 3.9 6.2 7.2 10.2 9.5 4.1 2.4 8.6 4 13.2 5.1 9.3 2 19.1 2.2 28.5 0.9 0.9-0.1 1.7 0.5 1.8 1.4q0.1 0.5-0.1 0.9h-0.1c-5.8 12.4-11.2 25.2-14.8 38.3-1.8 6.6-3.2 13.3-2.9 19.9 0.1 1.6 0.3 3.2 0.7 4.7 0.4 1.5 1.1 3 1.8 4.4 1.5 2.7 3.8 4.8 6.6 5.5 2.8 0.7 6 0.1 8.8-1.2 2.9-1.3 5.6-3.3 8.1-5.5 4.9-4.4 9-9.9 12.5-15.7 1.8-2.8 3.4-5.9 5-8.9q2.4-4.6 4.6-9.3 4.6-9.2 8.8-18.7c5.5-12.6 10.6-25.4 14.2-38.6 0.9-3.3 1.7-6.7 2.3-10 0.5-3.3 0.8-6.7 0.6-10q-0.1-1.2-0.3-2.3c-0.2-0.9-0.5-1.6-0.7-2.3-0.6-1.3-1.4-2.6-2.6-3.3-2.8-1.7-6-2.7-9.3-3.3-6.6-1.1-13.5-0.4-20.4 0-1.8 0.1-3.6 0.2-5.4-0.1-0.9-0.1-1.9-0.3-2.8-0.8-1-0.5-1.8-1.5-2-2.6-0.3-1-0.2-2 0-3 0.2-0.9 0.5-1.7 0.8-2.6 0.7-1.6 1.4-3.2 2.3-4.7 3.2-6.2 6.8-12.1 9.2-18.5 2.3-6.4 3.6-13.5 1.5-20.2 2.4 6.5 1.5 13.9-0.8 20.4-2.2 6.7-5.6 12.8-8.6 18.9-0.8 1.6-1.5 3.1-2 4.7-0.6 1.6-1 3.3-0.7 4.5 0.3 1.3 1.7 1.8 3.3 1.9 1.6 0.2 3.3 0.1 5 0 6.8-0.5 13.9-1.4 21-0.3 3.5 0.5 7 1.5 10.3 3.4 1.8 1 3 2.8 3.8 4.5 0.3 0.9 0.7 1.8 0.8 2.7q0.4 1.4 0.5 2.8c0.3 3.6 0 7.2-0.5 10.7-0.5 3.5-1.2 6.9-2 10.3-3.6 13.6-8.7 26.5-14.2 39.3q-4.1 9.5-8.7 18.9-2.3 4.7-4.6 9.3c-1.6 3.1-3.2 6.2-5 9.2-3.7 6.1-7.9 11.9-13.3 16.7-2.6 2.4-5.7 4.5-9.1 6-3.4 1.5-7.4 2.4-11.3 1.4-2-0.5-3.9-1.5-5.4-2.8-1.5-1.3-2.6-2.9-3.6-4.6-1.8-3.3-2.7-7-2.9-10.7-0.3-7.3 1.3-14.3 3.1-21 1.9-6.8 4.3-13.4 6.9-19.8 2.6-6.5 5.5-12.8 8.6-19l1.7 2.2c-9.9 1.1-19.9 0.8-29.5-1.5-4.9-1.2-9.6-3-13.9-5.6-4.2-2.6-8-6.1-10.7-10.4-2.6-4.3-3.9-9.4-4.2-14.3-0.3-4.9 0.4-9.9 1.5-14.6 2.3-9.6 6.3-18.6 11.3-26.9z"/>
						</g>
					</g>
				</g>
			</g>
		</g>
	</g>
</svg>